<svg width="116" height="83" viewBox="0 0 116 83" fill="none" xmlns="http://www.w3.org/2000/svg">
<path d="M38.7344 4.92188C40.6851 2.98026 43.8383 2.98026 45.7891 4.92188L78.9785 37.9561C80.9422 39.9105 80.9422 43.0895 78.9785 45.0439L45.7891 78.0781C43.8384 80.0197 40.6851 80.0197 38.7344 78.0781L5.54492 45.0439C3.58142 43.0895 3.58142 39.9105 5.54492 37.9561L38.7344 4.92188Z" stroke="#00FFF0" stroke-width="2"/>
<path d="M40.8139 29.536V33.92H34.8619V52H29.3899V33.92H23.4379V29.536H40.8139ZM55.4642 52.224C53.3522 52.224 51.4108 51.7333 49.6402 50.752C47.8908 49.7707 46.4935 48.4053 45.4482 46.656C44.4242 44.8853 43.9122 42.9013 43.9122 40.704C43.9122 38.5067 44.4242 36.5333 45.4482 34.784C46.4935 33.0347 47.8908 31.6693 49.6402 30.688C51.4108 29.7067 53.3522 29.216 55.4642 29.216C57.5762 29.216 59.5068 29.7067 61.2562 30.688C63.0268 31.6693 64.4135 33.0347 65.4162 34.784C66.4402 36.5333 66.9522 38.5067 66.9522 40.704C66.9522 42.9013 66.4402 44.8853 65.4162 46.656C64.3922 48.4053 63.0055 49.7707 61.2562 50.752C59.5068 51.7333 57.5762 52.224 55.4642 52.224ZM55.4642 47.232C57.2562 47.232 58.6855 46.6347 59.7522 45.44C60.8402 44.2453 61.3842 42.6667 61.3842 40.704C61.3842 38.72 60.8402 37.1413 59.7522 35.968C58.6855 34.7733 57.2562 34.176 55.4642 34.176C53.6508 34.176 52.2002 34.7627 51.1122 35.936C50.0455 37.1093 49.5122 38.6987 49.5122 40.704C49.5122 42.688 50.0455 44.2773 51.1122 45.472C52.2002 46.6453 53.6508 47.232 55.4642 47.232ZM87.4364 29.536V33.92H81.4844V52H76.0124V33.92H70.0604V29.536H87.4364ZM90.5347 40.736C90.5347 38.5173 91.0147 36.544 91.9747 34.816C92.9347 33.0667 94.268 31.712 95.9747 30.752C97.7027 29.7707 99.6547 29.28 101.831 29.28C104.497 29.28 106.78 29.984 108.679 31.392C110.577 32.8 111.847 34.72 112.487 37.152H106.471C106.023 36.2133 105.383 35.4987 104.551 35.008C103.74 34.5173 102.812 34.272 101.767 34.272C100.081 34.272 98.716 34.8587 97.6707 36.032C96.6253 37.2053 96.1027 38.7733 96.1027 40.736C96.1027 42.6987 96.6253 44.2667 97.6707 45.44C98.716 46.6133 100.081 47.2 101.767 47.2C102.812 47.2 103.74 46.9547 104.551 46.464C105.383 45.9733 106.023 45.2587 106.471 44.32H112.487C111.847 46.752 110.577 48.672 108.679 50.08C106.78 51.4667 104.497 52.16 101.831 52.16C99.6547 52.16 97.7027 51.68 95.9747 50.72C94.268 49.7387 92.9347 48.384 91.9747 46.656C91.0147 44.928 90.5347 42.9547 90.5347 40.736Z" fill="white"/>
</svg>
